<?xml version="1.0" encoding="utf-8"?>
<!-- Generator: Adobe Illustrator 21.1.0, SVG Export Plug-In . SVG Version: 6.00 Build 0)  -->
<svg version="1.1" id="behance" xmlns="http://www.w3.org/2000/svg" xmlns:xlink="http://www.w3.org/1999/xlink" x="0px" y="0px"
	 width="177.4px" height="110px" viewBox="0 0 177.4 110" style="enable-background:new 0 0 177.4 110;" xml:space="preserve">
<style type="text/css">
	.st0{fill:#FFFFFF;}
	.st1{fill:#231F20;}
</style>
<path class="st0" d="M71.6,50.2c0,0,16.8-1.2,16.8-20.9C88.4,9.6,74.6,0,57.2,0h-32h-0.9H0v110h24.3h0.9h32c0,0,34.9,1.1,34.9-32.5
	C92.2,77.5,93.7,50.2,71.6,50.2z M25.2,19.5h27.9h4.1c0,0,7.8,0,7.8,11.4s-4.6,13.1-9.8,13.1h-30V19.5z M55.8,90.4H25.2V61.1h32
	c0,0,11.6-0.2,11.6,15.1C68.8,88.9,60.4,90.3,55.8,90.4z"/>
<path class="st0" d="M138.8,25.7c-42.3,0-42.3,42.3-42.3,42.3s-2.9,42,42.3,42c0,0,37.6,2.1,37.6-29.3h-19.4c0,0,0.6,11.8-17.6,11.8
	c0,0-19.4,1.3-19.4-19.1h57C177.1,73.4,183.3,25.7,138.8,25.7z M156,58.7h-36.1c0,0,2.4-17,19.4-17C156.2,41.8,156,58.7,156,58.7z"
	/>
<rect x="115.1" y="4.2" class="st0" width="45.4" height="13.5"/>
</svg>
