<?xml version="1.0" encoding="utf-8"?>
<!-- Generator: Adobe Illustrator 21.1.0, SVG Export Plug-In . SVG Version: 6.00 Build 0)  -->
<svg version="1.1" id="behance" xmlns="http://www.w3.org/2000/svg" xmlns:xlink="http://www.w3.org/1999/xlink" x="0px" y="0px"
	 width="111.6px" height="110px" viewBox="0 0 111.6 110" style="enable-background:new 0 0 111.6 110;" xml:space="preserve">
<style type="text/css">
	.st0{fill:#FFFFFF;}
</style>
<g>
	<path class="st0" d="M25.3,11.9c0,6.6-4.9,11.9-12.9,11.9C4.9,23.9,0,18.5,0,11.9C0,5.2,5,0,12.7,0C20.4,0,25.1,5.2,25.3,11.9z
		 M0.6,110V33.3h23.9V110H0.6z"/>
	<path class="st0" d="M38.8,57.7c0-9.6-0.3-17.6-0.6-24.5h20.7l1.1,10.7h0.5c3.1-5,10.8-12.4,23.7-12.4c15.7,0,27.5,10.5,27.5,33.1
		V110H87.7V67.5c0-9.9-3.5-16.6-12.1-16.6c-6.6,0-10.5,4.6-12.2,8.9c-0.6,1.6-0.8,3.8-0.8,6V110H38.8V57.7z"/>
</g>
</svg>
